PathFileType	4	(X/Y/Z)	C:/Users/beibeiliu/ov580/test_trc/User3\sequence.14_training_dense_right.trc
DataRate	CameraRate	NumFrames	NumMarkers	Units	OrigDataRate	OrigDataStartFrame	OrigNumFrames
120	120	16	19	mm	120	185	246
Frame#	Time	ThumbCMC			ThumbMCP			ThumbIP			ThumbTip			IndexMCP			IndexPIP			IndexTip			MiddleMCP			MiddlePIP			MiddleTip			RingMCP			RingPIP			RingTip			PinkyMCP			PinkyPIP			PinkyTip			BackHand1			BackHand2			BackHand3	
		X0	Y0	Z0	X1	Y1	Z1	X2	Y2	Z2	X3	Y3	Z3	X4	Y4	Z4	X5	Y5	Z5	X6	Y6	Z6	X7	Y7	Z7	X8	Y8	Z8	X9	Y9	Z9	X10	Y10	Z10	X11	Y11	Z11	X12	Y12	Z12	X13	Y13	Z13	X14	Y14	Z14	X15	Y15	Z15	X16	Y16	Z16	X17	Y17	Z17	X18	Y18	Z18	
184	1.53333	188.233	-10.9246	-4.47146	165.575	-3.73594	-22.6699	148.344	8.74503	-43.4694	132.404	12.2171	-57.2002	174.111	-47.7075	-67.9286	162.404	-49.7717	-93.969	150.131	-52.4336	-112.509	171.753	-80.786	-59.0756	160.397	-90.6838	-80.5809	139.968	-99.0486	-110.274	163.753	-91.8766	-40.0456	151.674	-105.692	-61.7214	132.136	-118.97	-77.3012	151.397	-98.9618	-13.6645	132.223	-115.536	-19.329	111.771	-123.85	-27.2365	191.344	-74.5629	-4.16684	205.52	-68.0051	19.856	205.455	-44.2747	-6.19286	
185	1.54167	187.938	-13.8943	-0.466443	166.2	-2.10251	-18.5525	147.279	3.62809	-39.2287	130.514	10.8148	-55.2396	167.093	-53.635	-65.8305	156.481	-54.8086	-87.2016	138.119	-60.2447	-110.118	166.033	-82.5058	-58.399	150.236	-95.7553	-78.3938	131.184	-102.489	-99.9732	156.309	-97.9343	-37.3061	144.6	-110.199	-49.5425	124.88	-120.133	-69.2477	148.581	-100.504	-7.72325	127.521	-116.235	-14.1098	107.703	-124.614	-16.4382	188.384	-78.1011	-3.49361	204.792	-69.5477	26.5942	205.421	-45.7137	-4.52271	
186	1.55	188.009	-14.8076	1.4614	164.874	-3.75985	-18.0417	144.955	2.41413	-39.2198	130.034	11.6179	-52.6245	161.21	-54.3435	-58.9825	145.021	-56.6594	-83.681	127.512	-61.5372	-101.988	158.477	-83.0564	-50.5248	143.091	-93.6822	-71.317	116.379	-104.371	-94.2901	149.975	-100.035	-29.8658	134.303	-111.002	-42.8837	113.531	-120.367	-58.9451	141.785	-105.846	0.956127	122.416	-113.437	-7.34664	102.343	-122.843	-10.0687	186.482	-78.6453	1.36509	204.208	-73.6083	26.0343	200.737	-50.3407	-8.19749	
187	1.55833	188.318	-15.5524	4.50373	163.611	-6.01604	-14.5815	145.773	7.151	-32.5258	130.55	16.4742	-46.2951	152.343	-57.0185	-51.7675	134.071	-55.242	-78.7535	115.886	-60.4979	-92.2781	147.073	-82.8225	-43.3014	125.373	-91.4799	-66.264	98.5356	-99.901	-81.4486	141.526	-97.1298	-24.6109	124.634	-106.137	-36.4088	97.5814	-116.948	-48.3742	134.279	-104.232	7.7473	112.782	-112.705	5.37362	89.9495	-119.038	2.29263	182.722	-82.7887	6.6186	200.832	-75.0915	25.0372	196.292	-51.4254	-5.32291	
188	1.56667	187.448	-16.3428	7.44693	166	0.15715	-9.94134	144.028	9.11926	-29.8157	130.44	21.1954	-40.5721	142.572	-51.5021	-48.3157	121.023	-51.5415	-67.6028	102.093	-53.2956	-81.0144	135.29	-79.5084	-39.0615	113.808	-88.2794	-50.4642	80.9139	-91.6017	-67.6362	133.145	-90.9234	-16.8143	112.63	-102.78	-25.4786	84.2484	-109.938	-33.3596	129.845	-95.6527	12.6288	105.485	-104.176	11.3808	80.49	-107.819	11.7491	177.354	-79.9429	11.3571	197.625	-75.1665	24.8672	194.885	-54.0739	1.0898	
189	1.575	184.519	-11.6509	6.56524	162.64	2.85364	-7.4964	142.148	17.8547	-24.8449	127.615	27.6194	-33.4251	134.138	-43.6408	-37.9578	110.735	-39.6936	-59.0511	91.1002	-37.5565	-70.4523	124.065	-71.8872	-30.7297	97.3216	-75.4393	-45.7157	69.3938	-76.7244	-54.886	121.116	-85.3283	-10.5665	99.8235	-91.7825	-18.677	72.716	-98.0481	-19.4629	124.096	-89.91	24.2732	96.6619	-92.812	21.099	75.4	-92.7764	26.1472	170.78	-79.0502	13.1769	194.893	-73.3956	27.2715	188.451	-48.6173	0.294715	
190	1.58333	186.625	-10.3648	12.6887	162.436	6.97121	-1.39912	144.766	24.3266	-14.5216	128.689	38.0804	-25.7685	125.442	-33.5692	-33.0094	103.051	-28.1896	-48.472	79.4917	-24.5572	-59.8519	116.222	-61.5852	-20.2099	85.1071	-64.6575	-32.0511	53.6684	-62.7312	-39.1567	110.942	-75.1389	-2.6612	89.551	-79.7783	-8.12881	58.5546	-82.6275	-10.2534	117.279	-78.9013	27.4031	91.1624	-81.5506	31.6593	68.911	-78.2703	39.6802	160.724	-74.8469	15.5369	190.867	-72.1155	29.6661	183.398	-45.3899	1.10188	
191	1.59167	180.977	-9.64863	12.7018	165.109	9.69601	6.09277	145.45	33.5436	-11.0633	137.248	47.8921	-15.9804	115.321	-26.3461	-26.2657	96.4891	-17.1005	-39.55	76.8261	-8.85185	-49.0911	102.635	-52.5361	-14.1929	78.3629	-51.042	-21.6754	46.3219	-43.4389	-28.1953	106.384	-65.8574	7.41281	80.4647	-65.9009	0.75962	52.0292	-63.798	-0.336078	108.198	-72.5256	37.0322	84.9326	-70.5261	44.0482	61.2464	-61.5373	48.0038	156.17	-68.3463	14.9294	183.397	-69.258	29.0023	173.536	-45.3116	4.6243	
192	1.6	182.584	-6.46647	13.2391	167.992	18.5777	5.69383	148.219	36.8243	-5.64331	142.364	55.5481	-11.273	116.316	-14.1333	-22.2873	94.8231	-7.84736	-31.8172	70.5571	4.78617	-43.1125	98.8622	-42.4391	-8.93663	72.1509	-35.6852	-16.7792	41.9981	-27.024	-22.4088	97.5642	-54.1868	9.15972	75.1552	-55.9752	8.84499	45.2116	-47.3113	5.92027	101.835	-59.9623	37.9744	79.5909	-58.039	47.7025	60.4634	-52.2828	57.7106	149.709	-63.1146	19.5394	175.193	-66.9432	27.8831	175.24	-41.507	5.45252	
193	1.60833	185.969	-6.08712	16.8964	168.084	22.306	6.27242	158.835	43.1792	-1.04416	149.997	62.5699	-9.35303	118.366	-8.48341	-18.6212	97.3194	3.51011	-31.1092	74.4348	17.2122	-41.6657	98.1861	-30.832	-8.60211	75.3153	-24.7436	-15.0916	44.4923	-13.5624	-19.5524	100.239	-46.5568	13.8048	71.9867	-41.3847	8.2822	43.5159	-35.2184	8.90536	103.087	-54.1931	44.5635	77.1413	-47.818	51.4016	57.5079	-39.5164	60.754	143.749	-61.1005	19.7157	174.277	-68.8215	32.0184	173.803	-39.2656	6.97496	
194	1.61667	189.314	-1.56361	14.3919	175.351	25.6531	6.6135	163.569	49.2146	-3.76487	157.466	65.9889	-7.93146	116.968	-3.86374	-21.5164	99.8382	10.1719	-34.1242	79.5947	18.6821	-41.9076	98.766	-26.8873	-10.0684	73.8831	-19.6033	-16.0441	46.4543	-6.26924	-22.2522	98.6454	-38.9934	11.9758	74.1575	-35.8732	9.65947	47.9095	-28.8971	10.166	99.3199	-44.3211	38.9244	82.0848	-41.0335	49.9349	61.5544	-30.7024	54.0605	144.633	-53.6525	19.0534	172.71	-64.7821	29.6793	172.602	-35.7556	4.08545	
195	1.625	189.596	-1.29674	13.5669	177.337	26.6141	6.11513	169.954	49.8557	-2.21168	161.645	68.789	-9.50865	123.198	0.365924	-25.8785	107.937	13.8684	-40.4997	88.6007	26.3373	-54.0497	105.948	-20.5182	-16.9206	80.0958	-12.571	-24.5972	53.0111	-2.81247	-28.1954	99.8061	-35.1885	8.43576	77.8419	-30.6975	3.94748	50.6936	-21.1676	2.13179	100.759	-41.8172	36.1566	82.6157	-36.6838	45.6734	59.2973	-23.9559	47.703	151.015	-49.2692	17.268	173.576	-61.0346	30.6825	176.328	-34.5359	6.05805	
196	1.63333	195.068	-0.244432	13.6283	182.523	27.4722	4.45138	175.561	50.9271	-4.59248	172.896	71.6789	-12.494	131.092	1.55106	-33.4544	116.368	14.0396	-47.0456	100.722	24.5227	-62.952	109.728	-19.6392	-22.5431	85.5356	-11.8851	-32.8532	56.4666	1.90974	-41.3354	106.08	-31.6517	-0.987496	80.4886	-28.8218	-4.23182	55.0556	-19.2441	-6.70666	105.05	-37.82	27.9954	80.2806	-31.5952	37.244	62.2204	-26.6897	42.8306	149.123	-52.7409	14.0176	177.024	-61.2468	31.7269	178.724	-33.9056	4.42332	
197	1.64167	199.576	-1.08227	13.119	188.049	28.6857	-0.198984	181.724	52.1172	-11.4621	176.394	69.3785	-15.0251	139.409	-1.13431	-37.2716	123.068	11.1044	-56.8615	109.524	17.1373	-69.9622	120.762	-20.56	-28.0709	97.1039	-13.0386	-40.91	64.2507	-0.429324	-52.8663	111.198	-30.5026	-8.24549	84.2538	-27.6124	-13.6407	63.5094	-18.3117	-20.9558	108.07	-40.3958	25.2163	82.9588	-30.5832	27.3262	64.9593	-21.1794	29.3571	153.019	-49.4319	11.0237	181.376	-58.2955	29.0494	185.32	-33.4784	-0.329252	
198	1.65	200.609	-3.09846	10.8987	191.614	22.4919	0.509855	185.309	48.3296	-15.64	182.054	70.0377	-25.165	150.533	-6.32127	-44.2098	133.357	3.14389	-66.0481	122.582	11.6642	-87.3749	123.663	-27.3635	-35.4732	104.49	-16.3176	-55.4572	78.5324	-7.58549	-70.4762	115.627	-35.514	-14.6001	91.2111	-31.4598	-28.0608	72.1138	-23.2822	-36.3498	108.518	-41.2024	14.1821	84.7594	-33.3498	16.3424	66.7719	-27.1285	16.6449	158.225	-51.9026	8.52259	179.647	-59.5983	23.344	187.552	-37.1529	1.23801	
199	1.65833	199.712	-3.77873	5.26864	192.177	23.9384	-9.53463	184.223	44.3758	-25.1005	181.877	62.8839	-33.3445	155.178	-13.9391	-54.7863	149.903	-4.43302	-75.7191	136.839	-0.854036	-95.6963	133.899	-33.89	-47.912	118.256	-27.0132	-66.5865	90.5427	-21.4247	-86.7443	122.444	-42.1789	-26.2954	102.829	-38.6326	-43.4666	77.8915	-35.3287	-54.837	114.02	-46.8698	4.74094	88.326	-41.1394	0.294729	68.97	-34.6176	-2.52474	158.983	-56.5129	1.90701	182.801	-61.6902	24.7814	195.196	-37.8832	-4.72952	
